#!OML:ASF E:\Style6\Style6.ASF
:FULLY-SPECIFIED
:DEGREES
2810
root 0.0906787 16.4438 -0.104693 -12.559 0.240039 -2.20067
lowerback 12.1717 2.01013 0.676685
upperback 12.684 2.72569 0.336006
thorax 6.65388 1.4185 -0.18763
lowerneck 7.54996 -5.53531 2.627
upperneck -7.50388 -7.77046 -6.74104
head -3.84367 -3.59498 -2.0295
rclavicle -2.48481e-015 -1.98785e-016
rhumerus -17.9225 23.9082 -79.8357
rradius 67.1069
rwrist -31.2111
rhand 8.33228 6.61764
rfingers 7.12502
rthumb 33.5429 -20.2664
lclavicle -2.48481e-015 -1.98785e-016
lhumerus -25.6281 12.6167 82.1725
lradius 68.4549
lwrist 63.3498
lhand 17.659 26.8426
lfingers 7.12502
lthumb 42.3483 51.3149
rfemur -13.8032 -13.8473 18.1603
rtibia 55.1092
rfoot -20.8298 -4.46897
rtoes -22.7795
lfemur -13.0017 7.69303 -12.0681
ltibia 56.5946
lfoot -23.8495 2.398
ltoes -25.2371
2811
root 0.0949075 16.4476 -0.0951555 -12.599 0.0649346 -2.37089
lowerback 12.1312 1.99666 0.776354
upperback 12.6443 2.70999 0.413556
thorax 6.63205 1.41373 -0.160027
lowerneck 7.46853 -5.57708 2.83261
upperneck -6.99849 -7.76002 -6.51302
head -4.07703 -3.63214 -2.2257
rclavicle -4.72114e-014 1.47101e-014
rhumerus -18.1424 23.6162 -79.8981
rradius 67.3
rwrist -31.4935
rhand 8.64959 6.35608
rfingers 7.12502
rthumb 33.8444 -20.4621
lclavicle -4.72114e-014 1.47101e-014
lhumerus -26.0553 12.8243 82.1192
lradius 68.1592
lwrist 63.2625
lhand 17.7545 26.6877
lfingers 7.12502
lthumb 42.4378 51.1293
rfemur -13.6966 -13.6777 18.3745
rtibia 55.011
rfoot -20.8255 -4.48974
rtoes -22.6882
lfemur -12.8481 7.63956 -11.8864
ltibia 56.5104
lfoot -23.8427 2.54535
ltoes -25.38
2812
root 0.0996968 16.4568 -0.0855539 -12.6139 -0.0530668 -2.36407
lowerback 12.066 1.9873 0.697473
upperback 12.5926 2.68865 0.464676
thorax 6.60261 1.39337 -0.0601353
lowerneck 7.3832 -5.60192 3.04417
upperneck -6.78098 -7.75951 -6.52428
head -3.9948 -3.64265 -2.27022
rclavicle 3.23025e-014 -1.19271e-014
rhumerus -18.3928 23.3545 -79.9107
rradius 67.5267
rwrist -31.8643
rhand 8.91303 6.12964
rfingers 7.12502
rthumb 34.0947 -20.6331
lclavicle 3.23025e-014 -1.19271e-014
lhumerus -26.4371 13.0249 82.0934
lradius 67.684
lwrist 63.0865
lhand 17.7163 26.5829
lfingers 7.12502
lthumb 42.402 51.0368
rfemur -13.6021 -13.539 18.3781
rtibia 54.9054
rfoot -20.7843 -4.4993
rtoes -22.6437
lfemur -12.7313 7.50083 -11.9388
ltibia 56.4101
lfoot -23.8389 2.46532
ltoes -24.1434
2813
root 0.107515 16.468 -0.0731594 -12.5962 -0.12913 -2.24588
lowerback 11.9367 1.99274 0.540266
upperback 12.5237 2.68259 0.498933
thorax 6.58611 1.37554 0.0666145
lowerneck 7.38101 -5.64979 3.26223
upperneck -6.58816 -7.78785 -6.51204
head -3.93864 -3.66617 -2.30401
rclavicle 2.48481e-016 2.60408e-014
rhumerus -18.7099 23.0501 -79.9172
rradius 67.7513
rwrist -32.3026
rhand 8.69929 6.07549
rfingers 7.12502
rthumb 33.8916 -20.7323
lclavicle 2.48481e-016 2.60408e-014
lhumerus -26.7746 13.1553 82.0991
lradius 67.078
lwrist 62.7707
lhand 17.7179 26.4945
lfingers 7.12502
lthumb 42.4035 50.9479
rfemur -13.5054 -13.4735 18.2198
rtibia 54.7777
rfoot -20.759 -4.42007
rtoes -22.6492
lfemur -12.6307 7.36568 -12.137
ltibia 56.3072
lfoot -23.8732 2.34826
ltoes -22.8566
2814
root 0.116194 16.4691 -0.0587701 -12.6039 -0.233162 -2.19833
lowerback 11.749 1.9923 0.470647
upperback 12.481 2.67392 0.551253
thorax 6.63457 1.3624 0.16689
lowerneck 7.46306 -5.669 3.43925
upperneck -6.42347 -7.77699 -6.44355
head -3.90136 -3.6692 -2.31177
rclavicle -4.14466e-014 2.5842e-015
rhumerus -19.0348 22.7692 -79.9363
rradius 67.9486
rwrist -32.8293
rhand 8.35919 6.0701
rfingers 7.12502
rthumb 33.5685 -20.8084
lclavicle -4.14466e-014 2.5842e-015
lhumerus -27.1591 13.265 82.0685
lradius 66.4068
lwrist 62.4514
lhand 17.7707 26.1596
lfingers 7.12502
lthumb 42.453 50.596
rfemur -13.3975 -13.3992 18.1376
rtibia 54.659
rfoot -20.7023 -4.39053
rtoes -22.9874
lfemur -12.4341 7.29949 -12.2506
ltibia 56.1988
lfoot -23.9211 2.80627
ltoes -24.1495
2815
root 0.123016 16.4743 -0.0466025 -12.6477 -0.36542 -2.36237
lowerback 11.6583 1.96091 0.623071
upperback 12.4184 2.63622 0.664428
thorax 6.61564 1.34911 0.205017
lowerneck 7.51299 -5.62988 3.5627
upperneck -6.12766 -7.68593 -6.37236
head -3.80378 -3.63331 -2.31538
rclavicle -1.61016e-014 1.09332e-014
rhumerus -19.3858 22.4422 -79.95
rradius 68.1536
rwrist -33.4618
rhand 8.26915 6.05943
rfingers 7.12502
rthumb 33.4829 -20.8376
lclavicle -1.61016e-014 1.09332e-014
lhumerus -27.6885 13.3325 81.9994
lradius 65.748
lwrist 62.1871
lhand 17.8879 25.7968
lfingers 7.12502
lthumb 42.5627 50.1955
rfemur -13.2514 -13.2544 18.3212
rtibia 54.5234
rfoot -20.6662 -4.39022
rtoes -22.6323
lfemur -12.266 7.23092 -12.094
ltibia 56.113
lfoot -23.912 2.94344
ltoes -24.1264
